<?xml version="1.0" standalone="no"?>
<!DOCTYPE svg PUBLIC "-//W3C//DTD SVG 20010904//EN"
 "http://www.w3.org/TR/2001/REC-SVG-20010904/DTD/svg10.dtd">
<svg version="1.0" xmlns="http://www.w3.org/2000/svg"
 width="300.000000pt" height="318.000000pt" viewBox="0 0 300.000000 318.000000"
 preserveAspectRatio="xMidYMid meet">
<metadata>
Created by potrace 1.10, written by Peter Selinger 2001-2011
</metadata>
<g transform="translate(0.000000,318.000000) scale(0.050000,-0.050000)"
fill="#000000" stroke="none">
<path d="M0 3180 l0 -3180 3000 0 3000 0 0 3180 0 3180 -3000 0 -3000 0 0
-3180z m3443 2737 c268 -156 618 -357 777 -447 160 -90 349 -200 420 -243 72
-44 225 -133 340 -198 116 -65 233 -132 262 -149 28 -16 98 -56 155 -88 142
-80 156 -62 -197 -258 -60 -33 -240 -137 -400 -231 -159 -93 -501 -291 -760
-439 -258 -149 -606 -349 -773 -445 l-303 -175 -77 45 c-250 145 -1309 758
-1847 1070 -346 201 -637 372 -646 380 -9 8 50 49 130 91 162 84 632 348 1706
958 396 225 721 410 723 411 2 0 222 -126 490 -282z m2137 -1532 l-1 -215
-764 -436 c-421 -240 -945 -540 -1165 -666 -220 -127 -447 -257 -505 -291
l-105 -60 0 209 0 209 585 336 c322 184 774 445 1005 579 231 135 465 269 520
300 235 131 284 159 350 202 39 25 72 46 75 47 3 0 5 -96 5 -214z m0 -1540 l0
-1195 -1165 -669 c-641 -368 -1205 -695 -1254 -725 -49 -31 -96 -56 -105 -56
-9 0 -16 538 -16 1195 l0 1195 1265 725 c696 398 1267 724 1270 725 3 0 5
-538 5 -1195z"/>
<path d="M2468 5501 c-545 -84 -813 -433 -555 -720 109 -122 111 -122 299 -18
l151 82 -55 57 c-199 208 193 429 498 281 129 -64 162 -132 148 -302 -13 -159
18 -260 108 -354 82 -83 72 -84 240 14 l139 82 -53 63 c-51 61 -53 70 -42 242
14 210 -6 272 -114 367 -181 159 -504 246 -764 206z"/>
<path d="M3493 4428 c-86 -50 -153 -94 -150 -97 29 -27 325 -191 344 -191 12
0 89 40 170 88 l147 87 -170 103 c-202 121 -152 120 -341 10z"/>
</g>
</svg>
